<?xml version="1.0" standalone="no"?><!DOCTYPE svg PUBLIC "-//W3C//DTD SVG 1.1//EN" "http://www.w3.org/Graphics/SVG/1.1/DTD/svg11.dtd"><svg t="1533370593628" class="icon" style="" viewBox="0 0 1024 1024" version="1.1" xmlns="http://www.w3.org/2000/svg" p-id="25150" xmlns:xlink="http://www.w3.org/1999/xlink" width="16" height="16"><defs><style type="text/css"></style></defs><path d="M257.322 391.054c-35.256 0-63.83 29.638-63.83 66.21 0 36.58 28.574 66.224 63.83 66.224 35.244 0 63.828-29.646 63.828-66.224-0.002-36.572-28.586-66.21-63.828-66.21z m255.314 0c-35.248 0-63.824 29.638-63.824 66.21 0 36.58 28.584 66.224 63.824 66.224 35.248 0 63.828-29.646 63.828-66.224-0.002-36.572-28.582-66.21-63.828-66.21z m255.324 0c-35.25 0-63.834 29.638-63.834 66.21 0 36.58 28.584 66.224 63.834 66.224s63.816-29.646 63.816-66.224c0.002-36.572-28.566-66.21-63.816-66.21zM895.624 60H129.658C59.158 60 2 119.296 2 192.436v496.57c0 73.134 58.44 140.548 130.558 140.548H327.1c33.914 36.12 174.258 181.42 174.258 181.42 6.234 6.48 16.33 6.48 22.564 0 0 0 102.74-116.492 169.702-181.42H892.71c72.13 0 130.564-67.414 130.564-140.548v-496.57C1023.276 119.296 966.124 60 895.624 60z m63.818 629.006c0 36.562-30.664 74.926-66.73 74.926H696.926c-23.716 0-45.034 24.388-45.034 24.388L514.416 930.906 376.968 788.32s-26.182-24.388-48.62-24.388h-195.79c-36.06 0-66.726-38.364-66.726-74.926v-496.57c0-36.574 28.576-66.224 63.826-66.224h765.968c35.25 0 63.816 29.65 63.816 66.224v496.57z m0 0" fill="#8B8E93" p-id="25151"></path></svg>