<?xml version="1.0" standalone="no"?><!DOCTYPE svg PUBLIC "-//W3C//DTD SVG 1.1//EN" "http://www.w3.org/Graphics/SVG/1.1/DTD/svg11.dtd"><svg t="1533371045419" class="icon" style="" viewBox="0 0 1024 1024" version="1.1" xmlns="http://www.w3.org/2000/svg" p-id="28619" xmlns:xlink="http://www.w3.org/1999/xlink" width="16" height="16"><defs><style type="text/css"></style></defs><path d="M941.992241 430.30742c-19.434631-32.55444-53.077869-52.882418-87.609337-53.950749l-214.151381-1.068332c14.264888-42.942021 21.487384-87.722924 21.487384-133.039016 0-22.523993-1.87265-45.553499-6.004761-70.421886l-3.982708-17.984606c-11.382235-51.458999-54.740742-87.514169-105.558128-87.514169-59.762105 0-108.382453 50.656727-108.382453 113.006773 0 3.622504 0.119727 7.151887 0.446162 10.120498-2.943029 110.516046-130.643456 224.561475-174.061314 224.561475l-0.061398 0-159.110811 0.089028c-20.773116 0-37.684274 17.687848-37.684274 39.321564l-0.385786 463.779765c0 21.989827 18.276249 38.015825 41.160445 38.668695l137.923256-0.267083 5.290493 1.00898 4.635577-0.681522 524.916171 0.207731c18.455327-1.334391 36.255739-7.30129 51.709709-17.568121 16.73208-11.18883 30.224372-26.945699 36.346813-40.805358l6.4192-11.129478c36.166711-89.680509 80.299861-364.365568 82.083483-375.968837l0.713244-11.127432C959.942055 474.881614 954.354803 450.962855 941.992241 430.30742zM217.45666 889.014656l-86.123496 0.236384 0.327458-407.810033 85.796038-0.118704L217.45666 889.014656zM894.000204 499.692696c-0.448208 2.668783-44.700061 278.450826-75.962066 356.914876l-4.071735 6.707772c-3.656273 7.716752-9.243525 14.21577-16.07921 18.785855-6.240121 4.154623-13.639648 6.618744-19.227923 7.03523l-496.862231-0.207731-0.001023-411.165454c84.847433-17.21201 217.093387-152.330384 220.689285-291.599288l-0.385786-6.826476c0-25.343201 19.763113-45.998637 44.072775-45.998637 20.655436 0 38.276768 14.631232 42.914392 35.612079l3.595898 15.935947c3.151783 19.22997 4.695952 38.461987 4.695952 57.244772 0 38.045501-6.090718 75.645864-18.186198 111.641683l-29.600155 88.404446 292.965401 0.060375 6.924713 0.741897c15.57165 0.593518 29.717835 9.111518 37.889959 22.791076C892.453988 474.288097 894.771777 484.200864 894.000204 499.692696z" p-id="28620" fill="#8B8E93"></path></svg>