<?xml version="1.0" standalone="no"?><!DOCTYPE svg PUBLIC "-//W3C//DTD SVG 1.1//EN" "http://www.w3.org/Graphics/SVG/1.1/DTD/svg11.dtd"><svg t="1533362722510" class="icon" style="" viewBox="0 0 1024 1024" version="1.1" xmlns="http://www.w3.org/2000/svg" p-id="16656" xmlns:xlink="http://www.w3.org/1999/xlink" width="16" height="16"><defs><style type="text/css"></style></defs><path d="M707.490909 269.963636h-418.909091c-18.618182 0-34.909091-16.290909-34.909091-34.909091s16.290909-34.909091 34.909091-34.90909h418.909091c18.618182 0 34.909091 16.290909 34.909091 34.90909s-16.290909 34.909091-34.909091 34.909091zM707.490909 598.109091h-418.909091c-18.618182 0-34.909091-16.290909-34.909091-34.909091s16.290909-34.909091 34.909091-34.909091h418.909091c18.618182 0 34.909091 16.290909 34.909091 34.909091 0 20.945455-16.290909 34.909091-34.909091 34.909091zM607.418182 435.2H288.581818c-18.618182 0-34.909091-16.290909-34.909091-34.909091s16.290909-34.909091 34.909091-34.909091h318.836364c18.618182 0 34.909091 16.290909 34.909091 34.909091s-13.963636 34.909091-34.909091 34.909091z" p-id="16657" fill="#ffffff"></path><path d="M730.763636 1019.345455H132.654545c-44.218182 0-81.454545-37.236364-81.454545-81.454546V86.109091C51.2 41.890909 88.436364 4.654545 132.654545 4.654545h758.69091c44.218182 0 81.454545 37.236364 81.454545 81.454546V721.454545c0 18.618182-16.290909 34.909091-34.909091 34.909091s-34.909091-16.290909-34.909091-34.909091V86.109091c0-6.981818-4.654545-11.636364-11.636363-11.636364H132.654545c-6.981818 0-11.636364 4.654545-11.636363 11.636364v849.454545c0 6.981818 4.654545 11.636364 11.636363 11.636364h598.109091c18.618182 0 34.909091 16.290909 34.909091 34.909091s-16.290909 37.236364-34.909091 37.236364z" p-id="16658" fill="#ffffff"></path><path d="M730.763636 1019.345455c-6.981818 0-16.290909-2.327273-20.945454-6.981819-13.963636-11.636364-18.618182-34.909091-4.654546-48.872727l207.127273-262.981818c11.636364-13.963636 34.909091-18.618182 48.872727-4.654546s18.618182 34.909091 4.654546 48.872728l-207.127273 262.981818c-6.981818 6.981818-18.618182 11.636364-27.927273 11.636364z" p-id="16659" fill="#ffffff"></path><path d="M735.418182 1000.727273c-18.618182 0-34.909091-16.290909-34.909091-34.909091l-2.327273-193.163637c0-44.218182 34.909091-79.127273 76.8-81.454545l134.981818-2.327273c18.618182 0 34.909091 16.290909 34.909091 34.909091s-13.963636 34.909091-34.909091 34.909091l-134.981818 2.327273c-4.654545 0-9.309091 4.654545-9.309091 9.309091l4.654546 193.163636c0 20.945455-13.963636 37.236364-34.909091 37.236364z" p-id="16660" fill="#ffffff"></path></svg>