<?xml version="1.0" standalone="no"?><!DOCTYPE svg PUBLIC "-//W3C//DTD SVG 1.1//EN" "http://www.w3.org/Graphics/SVG/1.1/DTD/svg11.dtd"><svg t="1533362982159" class="icon" style="" viewBox="0 0 1024 1024" version="1.1" xmlns="http://www.w3.org/2000/svg" p-id="21396" xmlns:xlink="http://www.w3.org/1999/xlink" width="16" height="16"><defs><style type="text/css"></style></defs><path d="M956.063 231.986L792.015 67.938c-4.688-4.688-12.284-4.688-16.972 0L686.23 156.75l-29.981 29.981-318.48 318.481c-0.145 0.145-0.271 0.302-0.401 0.455l-0.027-0.026-0.032 0.095c-1.267 1.518-1.896 3.438-1.91 5.488l-94.706 272.084 272.084-94.705c2.051-0.018 3.973-0.645 5.488-1.91l0.096-0.033-0.027-0.025c0.153-0.133 0.313-0.258 0.455-0.401L837.27 367.75l29.98-29.98 88.813-88.813c4.687-4.686 4.687-12.285 0-16.971z m-648.65 484.602l68.822-159.332 90.51 90.51-159.332 68.822zM693.02 240.472l90.51 90.509L512 602.511 421.49 512l271.53-271.528z m90.508-90.511l90.51 90.511-45.255 45.255-90.51-90.511 45.255-45.255z" p-id="21397" fill="#ffffff"></path><path d="M128 896V128h512V64H76c-6.627 0-12 5.373-12 12v872c0 6.628 5.372 12 12 12h417.818v-64H128zM896 384h64v109.818h-64z" p-id="21398" fill="#ffffff"></path><path d="M768 576c-106.039 0-192 85.961-192 192s85.961 192 192 192 192-85.961 192-192-85.961-192-192-192z m0 320c-70.692 0-128-57.308-128-128s57.308-128 128-128 128 57.308 128 128-57.308 128-128 128z" p-id="21399" fill="#ffffff"></path><path d="M800 788c0 6.627-5.373 12-12 12h-40c-6.627 0-12-5.373-12-12V684c0-6.627 5.373-12 12-12h40c6.627 0 12 5.373 12 12v104z" p-id="21400" fill="#ffffff"></path><path d="M814.837 855.893c-4.686 4.686-11.626 5.344-15.501 1.469l-60.811-60.812c-3.875-3.874-3.218-10.815 1.469-15.501l28.284-28.284c4.686-4.687 11.627-5.344 15.501-1.469l60.811 60.811c3.876 3.875 3.218 10.815-1.469 15.501l-28.284 28.285z" p-id="21401" fill="#ffffff"></path></svg>