<?xml version="1.0" standalone="no"?><!DOCTYPE svg PUBLIC "-//W3C//DTD SVG 1.1//EN" "http://www.w3.org/Graphics/SVG/1.1/DTD/svg11.dtd"><svg t="1533352400677" class="icon" style="" viewBox="0 0 1024 1024" version="1.1" xmlns="http://www.w3.org/2000/svg" p-id="5570" xmlns:xlink="http://www.w3.org/1999/xlink" width="25" height="25"><defs><style type="text/css"></style></defs><path d="M210.189474 970.105263V471.578947c0-24.252632-18.863158-45.810526-45.810527-45.810526h-5.389473c-24.252632 0-45.810526 21.557895-45.810527 45.810526V970.105263c0 24.252632 18.863158 45.810526 45.810527 45.810526h5.389473c24.252632 0 45.810526-21.557895 45.810527-45.810526z m99.705263-520.08421s156.294737-59.284211 199.410526-269.473685l2.694737-24.252631V161.684211c8.084211-64.673684 40.421053-110.484211 91.621053-110.484211 53.894737 0 91.621053 35.031579 78.147368 110.484211l-13.473684 212.88421-2.694737 16.168421h296.421053c24.252632 0 43.115789 21.557895 43.115789 45.810526l-118.568421 525.473685c0 24.252632-18.863158 45.810526-43.115789 45.810526H309.894737V450.021053z" fill="#FD5A6f" p-id="5571"></path><path d="M164.378947 970.105263H86.231579C45.810526 970.105263 13.473684 935.073684 13.473684 894.652632V396.126316c0-43.115789 32.336842-75.452632 72.757895-75.452632h78.147368c40.421053 0 72.757895 35.031579 72.757895 75.452632v498.526316c2.694737 40.421053-32.336842 75.452632-72.757895 75.452631zM86.231579 379.957895c-8.084211 0-16.168421 8.084211-16.168421 16.168421v498.526316c0 8.084211 8.084211 16.168421 16.168421 16.168421h78.147368c8.084211 0 16.168421-8.084211 16.168421-16.168421V396.126316c0-8.084211-8.084211-16.168421-16.168421-16.168421H86.231579z m269.473684 582.063158h-16.168421c-16.168421 0-29.642105-13.473684-29.642105-29.642106 0-16.168421 13.473684-29.642105 29.642105-29.642105h16.168421c16.168421 0 29.642105 13.473684 29.642105 29.642105 0 16.168421-13.473684 29.642105-29.642105 29.642106z" fill="#FD5A6f" p-id="5572"></path><path d="M595.536842 344.926316l13.473684-194.021053c8.084211-56.589474-5.389474-88.926316-21.557894-107.789474C568.589474 18.863158 538.947368 5.389474 501.221053 5.389474c-61.978947 0-107.789474 48.505263-121.263158 126.652631 0 2.694737 0 5.389474-2.694737 5.389474v21.557895c-37.726316 183.242105-167.073684 199.410526-172.463158 199.410526-16.168421 2.694737-26.947368 16.168421-26.947368 32.336842 2.694737 16.168421 13.473684 26.947368 29.642105 26.947369h2.694737c8.084211 0 177.852632-18.863158 223.663158-247.91579 0 0 0-5.389474 2.694736-13.473684v-5.389474c2.694737-18.863158 13.473684-83.536842 64.673685-83.536842 13.473684 0 32.336842 2.694737 40.421052 16.168421 13.473684 16.168421 10.778947 40.421053 8.084211 59.284211v2.694736l-13.473684 212.884211v5.389474c-2.694737 5.389474-2.694737 8.084211-2.694737 13.473684 0 16.168421 13.473684 29.642105 29.642105 29.642105h296.421053c8.084211 0 13.473684 5.389474 13.473684 13.473684l-115.873684 458.105264v8.08421c0 8.084211-5.389474 16.168421-13.473685 16.168421H463.494737c-16.168421 0-29.642105 13.473684-29.642105 29.642105 0 16.168421 13.473684 29.642105 29.642105 29.642106h274.863158c37.726316 0 70.063158-32.336842 72.757894-70.063158L926.989474 431.157895v-8.084211c0-40.421053-32.336842-75.452632-72.757895-75.452631h-258.694737z" fill="#FD5A6f" p-id="5573"></path></svg>