<?xml version="1.0" standalone="no"?><!DOCTYPE svg PUBLIC "-//W3C//DTD SVG 1.1//EN" "http://www.w3.org/Graphics/SVG/1.1/DTD/svg11.dtd"><svg t="1533291235106" class="icon" style="" viewBox="0 0 1024 1024" version="1.1" xmlns="http://www.w3.org/2000/svg" p-id="58719" xmlns:xlink="http://www.w3.org/1999/xlink" width="25" height="25"><defs><style type="text/css"></style></defs><path d="M638.6 293.133h-90.1v-71c0-10.7 8.6-19.5 19.2-19.5h80.6c22.1 0 39.9-18.1 39.9-40.5s-17.9-40.5-39.9-40.5h-80.6c-54.7 0-99.1 45.1-99.1 100.4v71h-90c-168.6 0.1-305.3 135.8-305.3 303.3s136.7 303.3 305.4 303.3h260c168.6 0 305.3-135.7 305.3-303.3 0-167.5-136.7-303.2-305.4-303.2zM416.3 635.933h-52.8v52.8c0 21.9-17.7 39.6-39.6 39.6-21.9 0-39.6-17.7-39.6-39.6v-52.8h-52.8c-21.9 0-39.6-17.7-39.6-39.6s17.7-39.6 39.6-39.6h52.8v-52.8c0-21.9 17.7-39.6 39.6-39.6 21.9 0 39.6 17.7 39.6 39.6v52.8h52.8c21.9 0 39.6 17.7 39.6 39.6s-17.7 39.6-39.6 39.6zM666.9 583.233c-21.9 0-39.6-17.7-39.6-39.6s17.7-39.6 39.6-39.6c21.9 0 39.6 17.7 39.6 39.6 0 21.8-17.7 39.6-39.6 39.6zM772.4 688.733c-21.9 0-39.6-17.7-39.6-39.6s17.7-39.6 39.6-39.6c21.9 0 39.6 17.7 39.6 39.6 0 21.9-17.7 39.6-39.6 39.6z" p-id="58720" fill="#ffffff"></path></svg>