<?xml version="1.0" standalone="no"?><!DOCTYPE svg PUBLIC "-//W3C//DTD SVG 1.1//EN" "http://www.w3.org/Graphics/SVG/1.1/DTD/svg11.dtd"><svg t="1533352226059" class="icon" style="" viewBox="0 0 1024 1024" version="1.1" xmlns="http://www.w3.org/2000/svg" p-id="17497" xmlns:xlink="http://www.w3.org/1999/xlink" width="25" height="25"><defs><style type="text/css"></style></defs><path d="M510.04693652 1006.19909812c-275.38195269 0-499.00772266-223.62577006-499.00772271-499.00772265 0-79.09907152 17.57757144-155.2685478 51.7561826-223.62577004 6.83572222-17.57757144 27.34288893-24.41329369 44.92046037-13.67144441 17.57757144 10.74184921 24.41329369 27.34288893 13.67144447 44.92046031-31.24901591 58.59190479-44.92046035 124.01953188-44.92046037 193.35328586 0 237.29721454 193.3532859 430.65050039 430.65050038 430.65050045s433.58009559-193.3532859 433.58009567-430.65050045-193.3532859-430.65050039-430.65050041-430.65050037c-99.60623818 0-196.28288113 34.17861112-272.45235742 96.67664295-13.67144446 13.67144446-38.08473813 10.74184921-47.85005559-3.90612699-13.67144446-13.67144446-10.74184921-38.08473813 3.90612701-47.85005552 89.8409207-72.2633493 203.11860337-113.27768265 317.37281775-113.2776827 275.38195269 0 499.00772266 223.62577006 499.00772271 499.00772263s-224.6023018 498.03119098-499.98425446 498.03119093z" p-id="17498" fill="#efb336"></path><path d="M510.04693652 788.43251857c-137.69097633 0-250.96865898-113.27768265-250.96865899-250.96865893s113.27768265-250.96865898 250.96865899-250.968659 250.96865898 113.27768265 250.96865895 250.968659-113.27768265 250.96865898-250.96865895 250.96865893z m0-430.65050037c-99.60623818 0-182.61143665 83.00519853-182.6114367 182.61143663s83.00519853 182.61143665 182.6114367 182.61143668 182.61143665-83.00519853 182.61143666-182.61143668-82.02866674-182.61143665-182.61143666-182.61143663zM465.1264761 179.07670852c0 24.41329369 20.50716671 44.92046035 44.92046042 44.92046034 24.41329369 0 44.92046035-20.50716671 44.92046037-44.92046034 0-24.41329369-20.50716671-44.92046035-44.92046037-44.92046031-24.41329369 0-44.92046035 20.50716671-44.92046042 44.92046031z" p-id="17499" fill="#efb336"></path></svg>