<?xml version="1.0" standalone="no"?><!DOCTYPE svg PUBLIC "-//W3C//DTD SVG 1.1//EN" "http://www.w3.org/Graphics/SVG/1.1/DTD/svg11.dtd"><svg t="1533362825553" class="icon" style="" viewBox="0 0 1024 1024" version="1.1" xmlns="http://www.w3.org/2000/svg" p-id="17198" xmlns:xlink="http://www.w3.org/1999/xlink" width="16" height="16"><defs><style type="text/css"></style></defs><path d="M891.010103 307.247686c-0.010233-0.375553-0.026606-0.74906-0.056282-1.12359-0.025583-0.315178-0.061398-0.626263-0.101307-0.937349a19.97289 19.97289 0 0 0-0.607844-2.974751 20.301372 20.301372 0 0 0-4.333702-7.92346c-0.122797-0.13917-0.230244-0.287549-0.357133-0.424672L627.106598 16.179494a20.652366 20.652366 0 0 0-1.612731-1.547239c-3.737114-4.926196-9.636474-8.121981-16.297174-8.121981H139.2863c-39.530318 0-71.690786 35.205826-71.690786 78.479399V939.009304c0 43.273573 32.160467 78.478376 71.690786 78.478375h680.059623c39.531342 0 71.691809-35.204803 71.691809-78.478375V307.805388c0-0.188288-0.023536-0.370437-0.027629-0.557702z m-71.66418 669.308769H139.2863c-16.672728 0-30.758538-17.194614-30.758538-37.546128V84.989673c0-20.352537 14.08581-37.547151 30.758538-37.547151h460.999442l249.819742 268.413216V939.009304c0 20.352537-14.08581 37.547151-30.759561 37.547151z" p-id="17199" fill="#ffffff"></path><path d="M724.732056 505.432421h-490.828818c-27.571962 0-50.002834 22.430872-50.002834 50.002834V876.587626c0 27.570939 22.430872 50.001811 50.002834 50.00181h490.828818c27.570939 0 50.001811-22.430872 50.00181-50.00181V555.435255c0-27.570939-22.430872-50.002834-50.00181-50.002834z m9.069563 371.155205c0 5.001921-4.068665 9.069563-9.069563 9.069562h-490.828818c-5.001921 0-9.070586-4.068665-9.070587-9.069562V555.435255c0-5.001921 4.069689-9.070586 9.070587-9.070586h490.828818c5.001921 0 9.069563 4.069689 9.069563 9.070586V876.587626z" p-id="17200" fill="#ffffff"></path><path d="M667.300019 654.100392h-71.626318v-62.417585c0-11.30344-9.162684-20.466124-20.466124-20.466124s-20.466124 9.162684-20.466124 20.466124v62.417585H274.370905c-11.30344 0-20.466124 9.162684-20.466124 20.466124s9.162684 20.466124 20.466124 20.466124h392.930137c11.30344 0 20.466124-9.162684 20.466124-20.466124s-9.163707-20.466124-20.467147-20.466124zM667.300019 743.132124h-392.929114c-11.30344 0-20.466124 9.162684-20.466124 20.466124s9.162684 20.466124 20.466124 20.466124h71.62734v62.417585c0 11.30344 9.162684 20.466124 20.466124 20.466124s20.466124-9.162684 20.466124-20.466124v-62.417585h280.370549c11.30344 0 20.466124-9.162684 20.466124-20.466124s-9.163707-20.466124-20.467147-20.466124z" p-id="17201" fill="#ffffff"></path></svg>