<?xml version="1.0" standalone="no"?><!DOCTYPE svg PUBLIC "-//W3C//DTD SVG 1.1//EN" "http://www.w3.org/Graphics/SVG/1.1/DTD/svg11.dtd"><svg t="1533354108991" class="icon" style="" viewBox="0 0 1024 1024" version="1.1" xmlns="http://www.w3.org/2000/svg" p-id="2016" xmlns:xlink="http://www.w3.org/1999/xlink" width="25" height="25"><defs><style type="text/css"></style></defs><path d="M588.8 906.24v-64c70.4 0 145.92-65.28 181.76-157.44l60.16 23.04C784.64 826.88 687.36 906.24 588.8 906.24zM849.92 362.24h-64c0-152.32-124.16-276.48-276.48-276.48s-276.48 124.16-276.48 276.48h-64c0-188.16 153.6-340.48 340.48-340.48s340.48 152.32 340.48 340.48z" fill="#3DD3C1" p-id="2017"></path><path d="M218.88 744.96C112.64 744.96 25.6 659.2 25.6 552.96v-48.64C25.6 396.8 112.64 311.04 218.88 311.04c51.2 0 93.44 42.24 93.44 93.44V652.8c0 51.2-42.24 92.16-93.44 92.16z m0-369.92C147.2 375.04 89.6 432.64 89.6 504.32v48.64c0 71.68 57.6 129.28 129.28 129.28 16.64 0 29.44-12.8 29.44-29.44V404.48c0-16.64-12.8-29.44-29.44-29.44zM798.72 744.96c-51.2 0-93.44-42.24-93.44-93.44V404.48c0-51.2 42.24-93.44 93.44-93.44 106.24 0 193.28 87.04 193.28 193.28v48.64c0 106.24-87.04 192-193.28 192z m0-369.92c-16.64 0-29.44 12.8-29.44 29.44V652.8c0 16.64 12.8 29.44 29.44 29.44 71.68 0 129.28-57.6 129.28-129.28v-48.64c0-71.68-57.6-129.28-129.28-129.28zM509.44 1004.8c-69.12 0-124.16-56.32-124.16-124.16s56.32-124.16 124.16-124.16 124.16 56.32 124.16 124.16-56.32 124.16-124.16 124.16z m0-185.6c-33.28 0-60.16 26.88-60.16 60.16s26.88 60.16 60.16 60.16 60.16-26.88 60.16-60.16-26.88-60.16-60.16-60.16z" fill="#3DD3C1" p-id="2018"></path></svg>