<?xml version="1.0" standalone="no"?><!DOCTYPE svg PUBLIC "-//W3C//DTD SVG 1.1//EN" "http://www.w3.org/Graphics/SVG/1.1/DTD/svg11.dtd"><svg t="1533359896101" class="icon" style="" viewBox="0 0 1024 1024" version="1.1" xmlns="http://www.w3.org/2000/svg" p-id="7876" id="mx_n_1533359896101" xmlns:xlink="http://www.w3.org/1999/xlink" width="36" height="36"><defs><style type="text/css"></style></defs><path d="M513.579 9.118c-253.036 0-462.574 186.138-499.204 428.955a478.19 478.19 0 0 0-2.353 17.722 510.19 510.19 0 0 0-2.273 25.343A517.683 517.683 0 0 0 8.702 514c0 2.98 0.019 5.951 0.079 8.914 0.128 7.152 0.396 14.269 0.811 21.347a505.466 505.466 0 0 0 5.693 51.433L344.546 266.43l65.045-22.743 72.251-72.246 19.373 21.596 75.801 156.921 99.954 265.723 137.148 142.327-259.194 259.194c1.987-0.178 3.974-0.336 5.949-0.533a357.36 357.36 0 0 0 7.967-0.791 502.178 502.178 0 0 0 56.28-9.37c0.979-0.217 1.956-0.453 2.935-0.672C851.746 953.965 1018.467 753.461 1018.467 514c0-278.838-226.044-504.882-504.888-504.882z" fill="#FFF9C6" p-id="7877" data-spm-anchor-id="a313x.7781069.0.i24" class=""></path><path d="M676.97 615.681l-99.954-265.723-75.801-156.921-19.373-21.596-72.251 72.246-65.045 22.743L15.285 595.693a515.092 515.092 0 0 0 2.926 16.311c45.485 231.222 248.817 405.79 493.105 406.879h2.264c3.095 0 6.177-0.039 9.252-0.08a520.367 520.367 0 0 0 32.093-1.601l259.194-259.194L676.97 615.681z" fill="#FDF8BB" p-id="7878" data-spm-anchor-id="a313x.7781069.0.i25" class="selected"></path><path d="M560.143 257H464.17v-50.685c0-26.237 21.269-47.502 47.5-47.502h0.969c26.232 0 47.503 21.265 47.503 47.502V257zM577.016 693.92H447.298v68.496c0 35.464 28.752 64.205 64.215 64.205h1.286c35.463 0 64.217-28.741 64.217-64.205V693.92z" fill="#FDCB01" p-id="7879" data-spm-anchor-id="a313x.7781069.0.i23" class=""></path><path d="M779.228 683.899H245.084l49.3-323.366c12.484-81.928 82.937-142.451 165.813-142.451h105.995c83.281 0 153.932 61.097 165.97 143.494l47.066 322.323z" fill="#FDCB01" p-id="7880" data-spm-anchor-id="a313x.7781069.0.i21" class=""></path><path d="M814.118 755.912H211.657l21.804-111.056h557.39z" fill="#FDCB01" p-id="7881" data-spm-anchor-id="a313x.7781069.0.i22" class=""></path></svg>