<?xml version="1.0" standalone="no"?><!DOCTYPE svg PUBLIC "-//W3C//DTD SVG 1.1//EN" "http://www.w3.org/Graphics/SVG/1.1/DTD/svg11.dtd"><svg t="1533177658491" class="icon" style="" viewBox="0 0 1024 1024" version="1.1" xmlns="http://www.w3.org/2000/svg" p-id="4980" xmlns:xlink="http://www.w3.org/1999/xlink" width="200" height="200"><defs><style type="text/css"></style></defs><path d="M518.144 606.208c-17.408 0-33.792-5.12-48.128-16.384l-1.024-1.024L45.056 214.016 81.92 171.008l422.912 373.76c8.192 6.144 18.432 6.144 25.6 0L952.32 172.032l37.888 41.984-423.936 375.808c-14.336 10.24-30.72 16.384-48.128 16.384z" fill="#353A40" p-id="4981"></path><path d="M928.768 893.952H105.472c-45.056 0-81.92-36.864-81.92-81.92v-583.68c0-45.056 36.864-81.92 81.92-81.92h823.296c45.056 0 81.92 36.864 81.92 81.92v583.68c1.024 45.056-36.864 81.92-81.92 81.92zM105.472 202.752c-14.336 0-25.6 11.264-25.6 25.6v583.68c0 14.336 11.264 25.6 25.6 25.6h823.296c14.336 0 25.6-11.264 25.6-25.6v-583.68c0-14.336-11.264-25.6-25.6-25.6H105.472z" fill="#353A40" p-id="4982"></path></svg>