<?xml version="1.0" standalone="no"?><!DOCTYPE svg PUBLIC "-//W3C//DTD SVG 1.1//EN" "http://www.w3.org/Graphics/SVG/1.1/DTD/svg11.dtd"><svg t="1533291339149" class="icon" style="" viewBox="0 0 1024 1024" version="1.1" xmlns="http://www.w3.org/2000/svg" p-id="63177" xmlns:xlink="http://www.w3.org/1999/xlink" width="25" height="25"><defs><style type="text/css"></style></defs><path d="M900.1 846.4c-0.3-0.1-33.4-13.1-59.4-37.3-7.7-7.2-14.7-14.2-20.9-20.9 65.6-73.8 105.4-170.9 105.4-277.4 0-230.7-186.9-417.7-417.5-417.7S90.2 280.1 90.2 510.8s186.9 417.7 417.5 417.7c94.1 0 180.8-31.1 250.6-83.6 7.9 8.5 16.6 17.3 26.3 26.3 37.5 34.8 81.2 52.1 86.1 53.9 4.8 1.8 9.7 2.7 14.6 2.7 16.7 0 32.5-10.4 38.8-27.2 8.1-21.7-2.7-45.9-24-54.2zM284.9 594.5c-46.1 0-83.5-37.4-83.5-83.5s37.4-83.5 83.5-83.5 83.5 37.4 83.5 83.5-37.4 83.5-83.5 83.5z m222.6 222.6c-46.1 0-83.5-37.4-83.5-83.5s37.4-83.5 83.5-83.5 83.5 37.4 83.5 83.5c0 46.2-37.4 83.5-83.5 83.5z m-41.6-306.3c0-23 18.7-41.6 41.7-41.6 23.1 0 41.7 18.6 41.7 41.6s-18.7 41.6-41.7 41.6c-23 0-41.7-18.6-41.7-41.6z m41.6-139.1c-46.1 0-83.5-37.4-83.5-83.5s37.4-83.5 83.5-83.5 83.5 37.4 83.5 83.5-37.4 83.5-83.5 83.5z m223 222.8c-46.1 0-83.5-37.4-83.5-83.5s37.4-83.5 83.5-83.5S814 464.9 814 511s-37.4 83.5-83.5 83.5z" p-id="63178" fill="#ffffff"></path></svg>