<?xml version="1.0" standalone="no"?><!DOCTYPE svg PUBLIC "-//W3C//DTD SVG 1.1//EN" "http://www.w3.org/Graphics/SVG/1.1/DTD/svg11.dtd"><svg t="1533291473455" class="icon" style="" viewBox="0 0 1024 1024" version="1.1" xmlns="http://www.w3.org/2000/svg" p-id="69638" xmlns:xlink="http://www.w3.org/1999/xlink" width="25" height="25"><defs><style type="text/css"></style></defs><path d="M154.106004 64.562113h715.899595c49.421921 0 89.487577 40.063609 89.487578 89.487577v715.901643c0 49.421921-40.065657 89.487577-89.487578 89.487578H154.106004c-49.423969 0-89.487577-40.065657-89.487577-89.487578V154.04969c0-49.423969 40.063609-89.487577 89.487577-89.487577z m533.275313 209.733694l-300.395667 69.211576s-22.528549 5.246388-22.528549 23.072232v312.682292c-11.263762-3.217048-24.016254-5.080519-37.548947-5.080519-45.631497 0-82.608092 20.653815-82.608092 46.139344 0 25.488601 36.976595 46.146512 82.608092 46.146512 45.62945 0 82.61014-20.65791 82.61014-46.146512v-245.128386l255.334474-57.017102v191.887373c-11.263762-3.20988-24.016254-5.078471-37.548946-5.078471-45.62945 0-82.61014 20.65791-82.61014 46.135249 0 25.490649 36.98069 46.148559 82.61014 46.148559 45.631497 0 82.608092-20.65791 82.608092-46.148559V297.383397c0-12.756587-10.092438-23.078375-22.530597-23.078375v-0.009215m0 0" fill="#ffffff" p-id="69639"></path></svg>