<?xml version="1.0" standalone="no"?><!DOCTYPE svg PUBLIC "-//W3C//DTD SVG 1.1//EN" "http://www.w3.org/Graphics/SVG/1.1/DTD/svg11.dtd"><svg t="1533291369846" class="icon" style="" viewBox="0 0 1024 1024" version="1.1" xmlns="http://www.w3.org/2000/svg" p-id="64004" xmlns:xlink="http://www.w3.org/1999/xlink" width="25" height="25"><defs><style type="text/css"></style></defs><path d="M947.4 891.2L834.1 780.3c66.4-75 106.6-173 106.6-280.1 0-236.3-195.6-427.8-437-427.8-241.3 0-437 191.5-437 427.8S262.3 928 503.7 928c102.4 0 196.6-34.5 271.1-92.3l114.5 112.1c16 15.7 41.9 15.7 57.9 0 16.2-15.6 16.2-41 0.2-56.6zM694.9 660.6c0 22.2-18.3 40.1-41 40.1H353.6c-22.6 0-41-18-41-40.1 0-2.7 0.3-5.4 0.8-8l-3.4-3.8c20.6-58.7 68.2-105 128.3-124.8-42.4-22.7-71.2-66.7-71.2-117.4 0-73.8 61.1-133.7 136.6-133.7s136.6 59.9 136.6 133.7c0 50.6-28.8 94.7-71.2 117.4 60.1 19.8 107.7 66.2 128.3 124.8l-3.4 3.8c0.7 2.6 0.9 5.3 0.9 8z" p-id="64005" fill="#ffffff"></path></svg>