<?xml version="1.0" standalone="no"?><!DOCTYPE svg PUBLIC "-//W3C//DTD SVG 1.1//EN" "http://www.w3.org/Graphics/SVG/1.1/DTD/svg11.dtd"><svg t="1533352728610" class="icon" style="" viewBox="0 0 1024 1024" version="1.1" xmlns="http://www.w3.org/2000/svg" p-id="20216" xmlns:xlink="http://www.w3.org/1999/xlink" width="25" height="25"><defs><style type="text/css"></style></defs><path d="M221.504 792.064h598.336a34.816 34.816 0 0 0 34.688-34.688v-92.352H543.168a112.384 112.384 0 0 1-112.256-112.256V471.232c0-61.888 50.368-112.256 112.256-112.256h311.36V231.936c0-19.072 15.616-34.688 34.688-34.688H221.504a34.816 34.816 0 0 0-34.688 34.688v594.88c0-19.136 15.616-34.752 34.688-34.752z" fill="#FDEBED" p-id="20217" data-spm-anchor-id="a313x.7781069.0.i19" class=""></path><path d="M906.624 844.16v-62.528a17.28 17.28 0 0 1 17.344-17.344v-77.44a17.28 17.28 0 0 1-17.344-17.344v-7.616a52.096 52.096 0 0 1-17.344 3.2h-34.688v92.352a34.816 34.816 0 0 1-34.688 34.688h-598.4a34.816 34.816 0 0 0-34.688 34.688v34.688h702.464c9.6 0 17.344-7.808 17.344-17.344zM854.592 231.936V359.04h34.688a51.84 51.84 0 0 1 17.344 3.2V197.184h-17.344a34.816 34.816 0 0 0-34.688 34.752z" fill="#FDEBED" p-id="20218" data-spm-anchor-id="a313x.7781069.0.i22" class=""></path><path d="M582.656 545.536a56.064 56.064 0 0 1-2.624-16.192 55.68 55.68 0 0 1 36.928-52.352 38.528 38.528 0 0 0-54.272 35.008 38.208 38.208 0 0 0 19.968 33.536z" fill="#FFFFFF" p-id="20219"></path><path d="M906.624 411.072a17.408 17.408 0 0 0-17.344-17.344H543.168c-42.752 0-77.504 34.752-77.504 77.504v81.536c0 42.752 34.752 77.504 77.504 77.504h346.112c9.6 0 17.344-7.808 17.344-17.344V411.072zM527.936 512a73.216 73.216 0 1 1 146.432 0.128A73.216 73.216 0 0 1 527.936 512z" fill="#FFFFFF" p-id="20220"></path><path d="M889.28 358.976H543.168c-61.888 0-112.256 50.368-112.256 112.256v81.536c0 61.888 50.368 112.256 112.256 112.256h346.048a51.84 51.84 0 0 0 17.344-3.2v7.616a17.28 17.28 0 1 0 34.688 0V179.84a52.16 52.16 0 0 0-52.096-52.096H134.72a52.16 52.16 0 0 0-52.096 52.096v176.192a17.28 17.28 0 1 0 34.688 0V179.84c0-9.536 7.808-17.344 17.344-17.344h754.56c9.6 0 17.344 7.808 17.344 17.344V362.176a51.456 51.456 0 0 0-17.28-3.2z m0 271.36H543.168a77.568 77.568 0 0 1-77.504-77.504V471.232c0-42.752 34.752-77.504 77.504-77.504h346.112c9.6 0 17.344 7.808 17.344 17.344v201.92a17.344 17.344 0 0 1-17.344 17.344z" fill="#FD5F7B" p-id="20221" data-spm-anchor-id="a313x.7781069.0.i24" class="selected"></path><path d="M889.28 896.192a52.16 52.16 0 0 0 52.096-52.096v-62.528a17.28 17.28 0 1 0-34.688 0v62.528a17.408 17.408 0 0 1-17.344 17.344H134.72a17.344 17.344 0 0 1-17.344-17.344V513.472a17.28 17.28 0 1 0-34.688 0v330.624c0 28.736 23.36 52.096 52.096 52.096h754.496zM100.032 473.536a17.28 17.28 0 0 0 17.344-17.344v-12.352a17.28 17.28 0 1 0-34.688 0v12.288c0 9.6 7.744 17.408 17.344 17.408z" fill="#FD5F7B" p-id="20222" data-spm-anchor-id="a313x.7781069.0.i23" class="selected"></path><path d="M580.032 529.344c0 5.696 1.088 11.008 2.688 16.192a37.376 37.376 0 0 0 18.432 4.928 38.4 38.4 0 1 0 15.808-73.408 55.552 55.552 0 0 0-36.928 52.288z" fill="#DBDBDB" p-id="20223"></path><path d="M601.152 585.216a73.216 73.216 0 1 0-0.128-146.432 73.216 73.216 0 0 0 0.128 146.432z m0-111.68a38.4 38.4 0 0 1 0 76.928 37.568 37.568 0 0 1-18.432-4.928 38.336 38.336 0 0 1 18.432-72z" fill="#FD5F7B" p-id="20224" data-spm-anchor-id="a313x.7781069.0.i25" class="selected"></path></svg>