<?xml version="1.0" standalone="no"?><!DOCTYPE svg PUBLIC "-//W3C//DTD SVG 1.1//EN" "http://www.w3.org/Graphics/SVG/1.1/DTD/svg11.dtd"><svg t="1533352981070" class="icon" style="" viewBox="0 0 1024 1024" version="1.1" xmlns="http://www.w3.org/2000/svg" p-id="28832" xmlns:xlink="http://www.w3.org/1999/xlink" width="25" height="25"><defs><style type="text/css"></style></defs><path d="M595.054813 786.771851c0.045905 0 0.09181 0.005738 0.137715 0.005738 0.0526 0 0.105199-0.005738 0.159712-0.005738 17.332056 0 35.782093 1.937579 52.973564-0.071727 23.327457-2.72753 24.356497-19.472382 28.622805-38.654988 5.13468-23.092193 14.970811-44.596834 26.406926-65.192936 20.94039-37.713933 47.095794-73.541931 76.354577-105.257594 62.032176-63.827258 96.193244-147.057084 96.193244-234.422198 0-46.426345-9.464108-91.467885-28.129325-133.871793-17.998636-40.888082-43.745676-77.591146-76.525765-109.08876-32.720794-31.440232-70.810576-56.119022-113.213527-73.352572-43.854701-17.823623-90.420674-26.860239-138.403967-26.860239-47.982337 0-94.54831 9.037572-138.403968 26.860239-42.401995 17.233551-80.492733 41.91234-113.212571 73.352572-32.780088 31.497614-58.527128 68.200678-76.525764 109.08876-18.666174 42.403908-28.130281 87.445447-28.130282 133.871793 0 87.437797 34.209842 170.732655 96.340523 234.581909 29.207139 31.659238 55.349154 67.403076 76.214949 105.065367 11.088958 20.017506 20.991077 40.95694 25.87041 63.423675 5.077299 23.374318 5.341253 39.30818 32.750441 40.541881 17.362659 0.780387 34.944324-0.014345 52.323241-0.014345 9.784487 0 18.037847-6.532874 20.651571-15.472898l0.041123-0.145367c0.066945-0.23622 0.132934-0.473397 0.192228-0.712485 1.46227-5.714232 4.602946-24.867192-0.710573-72.80458-7.533223-67.956807-28.244088-162.561542-61.557824-281.18805-30.805211-109.692221-29.060816-208.864517 5.044783-286.795169 20.858144-47.659089 48.08658-74.198948 57.659712-82.546032a327.383912 327.383912 0 0 1 51.452001-4.071211 327.160124 327.160124 0 0 1 54.865237 4.615378c10.068525 8.899857 36.607429 35.306783 57.042863 82.002821 34.106555 77.930653 35.85095 177.102948 5.044782 286.79517-33.313735 118.626507-54.0246 213.231242-61.557823 281.188049-2.218748 20.018462-2.959925 35.001705-2.968532 46.09927h-27.998304V107.889488c0-11.883691-9.633383-21.51803-21.518029-21.518029-11.883691 0-21.51803 9.634339-21.51803 21.518029v734.514599c0 8.157724 4.539826 15.253892 11.230499 18.90335 3.932539 5.120335 10.11443 8.424548 17.07097 8.424548h95.099171c0.617807 0 1.163886 0.32038 1.479485 0.803339l-22.511685 104.124312a21.508466 21.508466 0 0 0-0.485829 4.547477c0 0.975484-0.793776 1.768304-1.770217 1.768304H443.947557a1.771173 1.771173 0 0 1-1.770216-1.768304c0-1.529215-0.162581-3.052691-0.48583-4.547477L419.957345 874.138877c3.412281-2.218748 9.194415-4.407849 12.345611-4.407849 11.883691 0 21.51803-9.633383 21.51803-21.518029s-9.634339-21.51803-21.51803-21.51803c-23.015685 0-56.448965 17.455426-56.448965 44.808189 0 1.529215 0.162581 3.052691 0.485829 4.547477l22.878926 105.817063c1.380979 23.471867 20.914569 42.142822 44.727855 42.142822h157.188729c23.813286 0 43.346875-18.670955 44.727855-42.142822l22.877969-105.817063a21.508466 21.508466 0 0 0 0.485829-4.547477c0-24.70748-20.098796-44.808189-44.803407-44.808189h-80.364581v-39.923118h50.995818zM372.375721 109.506688c-17.599836 39.187679-28.052816 82.951527-31.071078 130.076968-3.721185 58.111113 3.928714 121.531919 22.735472 188.50081 31.095944 110.727956 50.991036 199.923536 59.133458 265.110734 2.97427 23.816155 3.764221 40.041706 3.771872 50.540591h-21.786766c-6.065215-35.160461-25.305203-76.563063-57.4321-123.454196-27.985871-40.847915-55.45531-70.691031-56.611545-71.941946a22.930569 22.930569 0 0 0-0.393063-0.415059c-54.379408-55.790991-84.327724-128.50663-84.327724-204.753139 0-123.053483 77.696345-229.029302 188.542889-275.302629-7.695804 11.920032-15.433687 25.767123-22.561415 41.637866z m305.642095 318.576821c18.806758-66.96889 26.456657-130.389697 22.735472-188.500809-3.01635-47.125442-13.470287-90.889289-31.070122-130.076968-6.810217-15.164951-14.178947-28.477439-21.535244-40.031187 108.808547 47.093882 184.717462 152.059787 184.717461 273.696906 0 76.245552-29.947359 148.961191-84.327724 204.753139-0.067901 0.069814-0.124326 0.146323-0.191271 0.218049-0.065032 0.067901-0.137715 0.127195-0.201791 0.19701-1.156235 1.250915-28.625674 31.094031-56.610589 71.941946-32.12594 46.89209-51.365928 88.294692-57.431144 123.454196h-19.086014c0.117632-31.688885 7.582954-118.316648 63.000966-315.652282z" fill="#EBC422" p-id="28833"></path></svg>