<?xml version="1.0" standalone="no"?><!DOCTYPE svg PUBLIC "-//W3C//DTD SVG 1.1//EN" "http://www.w3.org/Graphics/SVG/1.1/DTD/svg11.dtd"><svg t="1533463923232" class="icon" style="" viewBox="0 0 1024 1024" version="1.1" xmlns="http://www.w3.org/2000/svg" p-id="6288" xmlns:xlink="http://www.w3.org/1999/xlink" width="24" height="24"><defs><style type="text/css"></style></defs><path d="M950.784 475.648H73.216c-19.968 0-36.352 16.384-36.352 36.352 0 19.968 16.384 36.352 36.352 36.352h877.568c19.968 0 36.352-16.384 36.352-36.352 0.512-19.968-15.872-36.352-36.352-36.352zM365.568 877.568h-219.136v-219.648c0-19.968-16.384-36.352-36.352-36.352-19.968 0-36.352 16.384-36.352 36.352v256c0 19.968 16.384 36.352 36.352 36.352h256c19.968 0 36.352-16.384 36.352-36.352s-16.384-36.352-36.864-36.352zM657.92 146.432c0.512 0 0.512 0 0 0h219.648v219.648c0 19.968 16.384 36.352 36.352 36.352 19.968 0 36.352-16.384 36.352-36.352v-256c0-19.968-16.384-36.352-36.352-36.352H658.432h-0.512c-19.968 0-36.352 16.384-36.352 36.352s16.384 36.352 36.352 36.352zM109.568 402.432c19.968 0 36.352-16.384 36.352-36.352V146.432h219.136c19.968 0 36.352-16.384 36.352-36.352s-16.384-36.352-36.352-36.352h-256c-19.968 0-36.352 16.384-36.352 36.352v256c0.512 19.968 16.896 36.352 36.864 36.352zM914.432 621.568c-19.968 0-36.352 16.384-36.352 36.352v219.136H658.432c-19.968 0-36.352 16.384-36.352 36.352 0 19.968 16.384 36.352 36.352 36.352h256c19.968 0 36.352-16.384 36.352-36.352v-255.488-0.512c0-19.456-16.384-35.84-36.352-35.84z" p-id="6289" fill="#707070"></path></svg>