<?xml version="1.0" standalone="no"?><!DOCTYPE svg PUBLIC "-//W3C//DTD SVG 1.1//EN" "http://www.w3.org/Graphics/SVG/1.1/DTD/svg11.dtd"><svg t="1533291312095" class="icon" style="" viewBox="0 0 1024 1024" version="1.1" xmlns="http://www.w3.org/2000/svg" p-id="61737" xmlns:xlink="http://www.w3.org/1999/xlink" width="25" height="25"><defs><style type="text/css"></style></defs><path d="M763.198 250.134 763.198 62.41 260.822 62.41l0 187.725L123.64 250.135l0 609.533c0 56.03 45.24 101.455 101.047 101.455l574.651 0c55.805 0 101.045-45.425 101.045-101.455L900.383 250.134 763.198 250.134 763.198 250.134zM353.577 155.525l316.872 0 0 94.607L353.577 250.132 353.577 155.525zM512.011 780.578c0 0-201.707-86.94-201.707-249.179 0-58.115 39.017-100.725 96.887-100.725 47.832 0 78.915 48.14 94.03 79.292 1.962 4.055 6.067 6.617 10.542 6.563 4.495-0.03 8.555-2.66 10.435-6.74 14.415-31.182 44.7-79.115 94.635-79.115 57.895 0 96.885 42.61 96.885 100.725C713.718 693.638 512.011 780.578 512.011 780.578L512.011 780.578 512.011 780.578z" p-id="61738" fill="#ffffff"></path></svg>