<?xml version="1.0" standalone="no"?><!DOCTYPE svg PUBLIC "-//W3C//DTD SVG 1.1//EN" "http://www.w3.org/Graphics/SVG/1.1/DTD/svg11.dtd"><svg t="1533291152178" class="icon" style="" viewBox="0 0 1024 1024" version="1.1" xmlns="http://www.w3.org/2000/svg" p-id="57847" xmlns:xlink="http://www.w3.org/1999/xlink" width="25" height="25"><defs><style type="text/css"></style></defs><path d="M19.2 509.44C19.2 785.92 241.92 1011.2 515.84 1011.2s496.64-225.28 496.64-501.76S787.2 7.68 513.28 7.68 19.2 232.96 19.2 509.44" fill="#E7CEA7" p-id="57848"></path><path d="M42.24 509.44c0 263.68 209.92 476.16 471.04 476.16S984.32 773.12 984.32 509.44 774.4 33.28 513.28 33.28C254.72 33.28 42.24 245.76 42.24 509.44" fill="#DE4630" p-id="57849"></path><path d="M19.2 517.12c0 176.64 97.28 317.44 217.6 317.44s217.6-143.36 217.6-317.44S357.12 197.12 236.8 197.12 19.2 340.48 19.2 517.12M753.92 939.52c158.72-79.36 243.2-232.96 189.44-343.04-53.76-110.08-225.28-135.68-384-56.32s-243.2 232.96-189.44 343.04 225.28 135.68 384 56.32z" fill="#E7CEA7" p-id="57850"></path><path d="M579.84 460.8c204.8 87.04 353.28 20.48 396.8-66.56 28.16-79.36-99.84-256-243.2-332.8C623.36 0 413.44-10.24 369.92 92.16c-48.64 125.44 7.68 284.16 209.92 368.64z" fill="#E7CEA7" p-id="57851"></path><path d="M423.68 97.28c-40.96 107.52 10.24 243.2 189.44 320 84.48 35.84 263.68 23.04 302.08-69.12 25.6-74.24-58.88-204.8-179.2-271.36C643.84 23.04 456.96 7.68 423.68 97.28" fill="#271E1E" p-id="57852"></path><path d="M505.6 112.64c-28.16 76.8 7.68 174.08 130.56 230.4 58.88 25.6 181.76 15.36 207.36-51.2 20.48-51.2-38.4-145.92-120.32-194.56-64-35.84-192-48.64-217.6 15.36" fill="#1D6FA7" p-id="57853"></path><path d="M37.12 504.32c0 145.92 76.8 266.24 171.52 266.24s171.52-120.32 171.52-266.24-76.8-266.24-171.52-266.24S37.12 355.84 37.12 504.32" fill="#271E1E" p-id="57854"></path><path d="M72.96 512c0 102.4 51.2 186.88 112.64 186.88 64 0 112.64-84.48 112.64-186.88s-51.2-186.88-112.64-186.88c-61.44 0-112.64 84.48-112.64 186.88" fill="#1D6FA7" p-id="57855"></path><path d="M416 885.76c40.96 84.48 181.76 97.28 317.44 30.72 135.68-66.56 209.92-189.44 168.96-271.36s-181.76-97.28-317.44-30.72-209.92 186.88-168.96 271.36" fill="#271E1E" p-id="57856"></path><path d="M505.6 875.52c28.16 58.88 128 69.12 220.16 23.04 92.16-46.08 143.36-130.56 115.2-189.44-28.16-58.88-128-69.12-220.16-23.04-92.16 43.52-143.36 130.56-115.2 189.44" fill="#1D6FA7" p-id="57857"></path><path d="M774.4 517.12c-10.24 0-20.48-10.24-20.48-20.48s10.24-20.48 20.48-20.48 20.48 10.24 20.48 20.48-10.24 20.48-20.48 20.48zM725.76 504.32c-5.12 0-10.24-5.12-10.24-10.24s5.12-10.24 10.24-10.24 10.24 5.12 10.24 10.24c0 7.68-5.12 10.24-10.24 10.24zM380.16 309.76c-10.24 0-20.48-10.24-20.48-20.48s10.24-20.48 20.48-20.48 20.48 10.24 20.48 20.48-7.68 20.48-20.48 20.48z" fill="#DE4630" p-id="57858"></path><path d="M403.2 340.48a12.8 12.8 0 1 0 25.6 0 12.8 12.8 0 1 0-25.6 0Z" fill="#DE4630" p-id="57859"></path><path d="M398.08 670.72a15.36 15.36 0 1 0 30.72 0 15.36 15.36 0 1 0-30.72 0Z" fill="#DE4630" p-id="57860"></path><path d="M372.48 760.32c-10.24 0-20.48-10.24-20.48-20.48s10.24-20.48 20.48-20.48 20.48 10.24 20.48 20.48-7.68 20.48-20.48 20.48z" fill="#DE4630" p-id="57861"></path><path d="M572.16 855.04m-7.68 0a7.68 7.68 0 1 0 15.36 0 7.68 7.68 0 1 0-15.36 0Z" fill="#FFFFFF" p-id="57862"></path><path d="M175.36 417.28m-12.8 0a12.8 12.8 0 1 0 25.6 0 12.8 12.8 0 1 0-25.6 0Z" fill="#FFFFFF" p-id="57863"></path><path d="M244.48 499.2m-7.68 0a7.68 7.68 0 1 0 15.36 0 7.68 7.68 0 1 0-15.36 0Z" fill="#FFFFFF" p-id="57864"></path><path d="M136.96 488.96m-5.12 0a5.12 5.12 0 1 0 10.24 0 5.12 5.12 0 1 0-10.24 0Z" fill="#FFFFFF" p-id="57865"></path><path d="M697.6 719.36m-2.56 0a2.56 2.56 0 1 0 5.12 0 2.56 2.56 0 1 0-5.12 0Z" fill="#FFFFFF" p-id="57866"></path><path d="M602.88 785.92l-10.24 2.56 2.56-10.24-2.56-12.8 10.24 5.12 12.8-5.12-5.12 12.8 5.12 10.24zM707.84 829.44l-23.04 7.68 7.68-25.6-7.68-23.04 23.04 7.68 23.04-7.68-5.12 23.04 5.12 25.6zM183.04 570.88L165.12 588.8l-5.12-23.04-17.92-17.92 23.04-5.12 17.92-17.92 5.12 25.6 17.92 15.36z" fill="#FFFFFF" p-id="57867"></path><path d="M285.44 179.2h-23.04l12.8-20.48-2.56-23.04 20.48 10.24h25.6l-12.8 20.48 2.56 23.04zM928 529.92l-20.48-12.8 20.48-10.24 12.8-20.48 12.8 20.48 20.48 12.8-23.04 12.8-12.8 20.48zM298.24 885.76l-12.8-20.48h23.04l20.48-10.24v23.04l12.8 20.48H318.72l-23.04 12.8z" fill="#E7CEA7" p-id="57868"></path><path d="M715.52 245.76l-15.36 17.92-7.68-23.04-15.36-17.92 23.04-5.12 17.92-17.92 5.12 25.6 15.36 15.36zM584.96 158.72l-10.24 7.68-2.56-10.24-7.68-10.24 12.8-2.56 7.68-7.68 2.56 10.24 7.68 10.24zM587.392 238.5408l22.1696-12.8 12.8 22.1696-22.1696 12.8z" fill="#FFFFFF" p-id="57869"></path></svg>