<?xml version="1.0" standalone="no"?><!DOCTYPE svg PUBLIC "-//W3C//DTD SVG 1.1//EN" "http://www.w3.org/Graphics/SVG/1.1/DTD/svg11.dtd"><svg t="1533219374200" class="icon" style="" viewBox="0 0 1046 1024" version="1.1" xmlns="http://www.w3.org/2000/svg" p-id="19775" xmlns:xlink="http://www.w3.org/1999/xlink" width="32.6875" height="32"><defs><style type="text/css"></style></defs><path d="M958.638298 65.361702 827.914894 65.361702 827.914894 0 217.87234 0 217.87234 65.361702 87.148936 65.361702 87.148936 0C52.868058 0.343945 0 31.833999 0 72.40404L0 951.59596C0 992.185109 31.080824 1023.656056 87.148936 1024L87.148936 958.638298 217.87234 958.638298 217.87234 1024 827.914894 1024 827.914894 958.638298 958.638298 958.638298 958.638298 1024C992.919175 1023.636946 1045.787234 992.185109 1045.787234 951.59596L1045.787234 72.40404C1045.787234 31.833999 992.919175 0.363053 958.638298 0L958.638298 65.361702ZM87.148936 697.191489 217.87234 697.191489 217.87234 827.914894 87.148936 827.914894 87.148936 697.191489ZM827.914894 697.191489 958.638298 697.191489 958.638298 827.914894 827.914894 827.914894 827.914894 697.191489ZM87.148936 435.744681 217.87234 435.744681 217.87234 566.468085 87.148936 566.468085 87.148936 435.744681ZM827.914894 435.744681 958.638298 435.744681 958.638298 566.468085 827.914894 566.468085 827.914894 435.744681ZM87.148936 174.297872 217.87234 174.297872 217.87234 305.021277 87.148936 305.021277 87.148936 174.297872ZM827.914894 174.297872 958.638298 174.297872 958.638298 305.021277 827.914894 305.021277 827.914894 174.297872ZM370.382979 724.040403 370.382979 310.303029 725.747573 517.171716 370.382979 724.040403 370.382979 724.040403Z" p-id="19776" fill="#ffffff"></path></svg>