<?xml version="1.0" standalone="no"?><!DOCTYPE svg PUBLIC "-//W3C//DTD SVG 1.1//EN" "http://www.w3.org/Graphics/SVG/1.1/DTD/svg11.dtd"><svg t="1533219018163" class="icon" style="" viewBox="0 0 1024 1024" version="1.1" xmlns="http://www.w3.org/2000/svg" p-id="12883" xmlns:xlink="http://www.w3.org/1999/xlink" width="32" height="32"><defs><style type="text/css"></style></defs><path d="M894.916063 462.922235c-16.250102 0-29.546943 13.402241-29.546943 30.092365l0 327.258439c0 32.6844-18.517749 66.919109-49.829895 66.919109L218.301911 887.192148c-32.269961 0-67.147306-33.901111-67.147306-66.919109L151.154605 185.741331c0-31.954783 35.195593-52.727898 67.147306-52.727898l324.119959 0c16.265452 0 29.472242-13.552667 29.472242-30.154787 0-16.658402-13.205766-30.214139-29.472242-30.214139L218.301911 72.644507c-31.112602 0-61.542658 10.751878-84.754313 29.210275-26.437116 21.137413-41.514509 51.264571-41.514509 83.887572l0 634.532731c0 31.586392 14.4542 63.600527 38.835494 88.515986 24.338315 24.915459 56.486502 38.835494 87.433328 38.835494l597.237313 0c31.91999 0 60.522422-14.559601 81.189114-41.514509 18.10945-23.729447 27.734668-54.03773 27.734668-85.836971L924.463006 493.015623C924.463006 476.325499 911.197888 462.922235 894.916063 462.922235zM474.467175 533.741163c7.311523 7.401574 16.85897 11.178597 26.424836 11.178597 9.488095 0 19.067264-3.777023 26.347065-11.178597l393.796878-402.492934c14.57495-14.924921 14.57495-38.987966 0-53.94461-14.57495-14.893198-38.165228-14.893198-52.724829 0L474.467175 479.796554C459.907575 494.721475 459.907575 518.875594 474.467175 533.741163z" p-id="12884" fill="#ffffff"></path></svg>