<?xml version="1.0" standalone="no"?><!DOCTYPE svg PUBLIC "-//W3C//DTD SVG 1.1//EN" "http://www.w3.org/Graphics/SVG/1.1/DTD/svg11.dtd"><svg t="1533291292191" class="icon" style="" viewBox="0 0 1025 1024" version="1.1" xmlns="http://www.w3.org/2000/svg" p-id="60940" xmlns:xlink="http://www.w3.org/1999/xlink" width="25.0244140625" height="25"><defs><style type="text/css"></style></defs><path d="M1001.984 947.2 911.36 947.2l0-12.288 0-508.416c-1.024-49.664-40.96-88.576-91.136-88.576l-139.776 0-19.456 0c-50.176 0-97.792 38.4-97.792 88.576L563.2 947.2 22.016 947.2c-11.776 0-22.016 10.752-22.016 23.04s9.728 23.04 22.016 23.04l566.272 0L655.36 993.28l238.08 0 109.056 0c11.776 0 22.016-10.752 22.016-23.04S1014.272 947.2 1001.984 947.2zM783.36 551.424c0 12.288-9.728 22.016-22.016 22.016l-43.52 0c-12.288 0-22.016-9.728-22.016-22.016L695.808 487.936c0-12.288 9.728-22.016 22.016-22.016l43.52 0c12.288 0 22.016 9.728 22.016 22.016L783.36 551.424zM783.36 751.104c0 12.288-9.728 22.016-22.016 22.016l-43.52 0c-12.288 0-22.016-9.728-22.016-22.016l0-64c0-12.288 9.728-22.016 22.016-22.016l43.52 0c12.288 0 22.016 9.728 22.016 22.016L783.36 751.104z" p-id="60941" fill="#ffffff"></path><path d="M566.272 30.72 217.6 30.72C157.696 30.72 107.52 72.192 107.52 132.096L107.52 906.24l414.72 0 0-220.16-5.632 0-31.744 0-4.096 0c-14.336 0-25.088-11.264-25.088-25.6l0-56.32c0-14.336 10.752-25.6 25.088-25.6l4.096 0 31.744 0 5.632 0L522.24 426.496c0-74.24 64.512-134.656 138.752-134.656l9.728 0L670.72 132.096C670.72 72.192 626.688 30.72 566.272 30.72zM322.56 464.384c0 12.288-9.728 22.016-22.016 22.016l-43.52 0c-12.288 0-22.016-9.728-22.016-22.016L235.008 400.896c0-12.288 9.728-22.016 22.016-22.016l43.52 0c12.288 0 22.016 9.728 22.016 22.016L322.56 464.384zM322.56 269.824c0 12.288-9.728 22.016-22.016 22.016l-43.52 0c-12.288 0-22.016-9.728-22.016-22.016L235.008 206.336c0-12.288 9.728-22.016 22.016-22.016l43.52 0c12.288 0 22.016 9.728 22.016 22.016L322.56 269.824zM542.72 269.824c0 12.288-9.728 22.016-22.016 22.016l-43.52 0c-12.288 0-22.016-9.728-22.016-22.016L455.168 206.336c0-12.288 9.728-22.016 22.016-22.016l43.52 0c12.288 0 22.016 9.728 22.016 22.016L542.72 269.824z" p-id="60942" fill="#ffffff"></path></svg>