<?xml version="1.0" standalone="no"?><!DOCTYPE svg PUBLIC "-//W3C//DTD SVG 1.1//EN" "http://www.w3.org/Graphics/SVG/1.1/DTD/svg11.dtd"><svg t="1533291066317" class="icon" style="" viewBox="0 0 1024 1024" version="1.1" xmlns="http://www.w3.org/2000/svg" p-id="57105" xmlns:xlink="http://www.w3.org/1999/xlink" width="25" height="25"><defs><style type="text/css"></style></defs><path d="M166.812208 85.475868l85.475868 24.930886c7.122819 2.392949 8.291279 5.954359 3.56141 10.684229l-10.684229 14.245638c-7.122819 21.369476-15.470128 43.962423-24.930886 67.66882l60.546001-3.56141 0-14.245638c0-30.829216-1.224489-71.230229-3.56141-121.090983 0-26.099346 0-43.906394 0-53.422163 0-9.460758 2.33692-11.852689 7.122819-7.122819l81.914458 28.492296c4.72987 2.392949 4.72987 4.785899 0 7.122819l-14.245638 32.053705 0 124.652392 21.369476 0 35.615115-39.176524 49.860753 49.860753c4.72987 4.785899 4.72987 7.122819 0 7.122819l-106.845344 3.56141-3.56141 213.690688c11.852689-4.730888 28.492296-11.853708 49.860753-21.369476 11.852689-2.33692 20.144987-4.730888 24.930886-7.122819 4.72987 0 5.899349 2.392949 3.56141 7.122819-11.908718 9.515769-29.715766 20.199997-53.422163 32.053705-11.908718 9.515769-20.201016 15.471146-24.930886 17.807048l-3.56141 96.161115 3.56141 153.144688c-2.392949 52.253703-16.638588 100.890985-42.737934 146.021868-7.122819 9.45974-15.470128 13.021149-24.930886 10.684229-7.122819-2.392949-10.684229-9.515769-10.684229-21.369476l7.122819-227.936327L277.218962 505.733406c-66.50036 42.737934-108.068815 73.62216-124.652392 92.598687-7.122819 4.785899-11.908718 3.56141-14.245638-3.56141L109.828636 505.733406c0-4.730888 1.16846-7.122819 3.56141-7.122819 37.952035-7.122819 92.598687-22.537936 163.828916-46.299344l3.56141-231.497736-67.66882 0c-35.615115 78.353049-73.623179 150.807767-113.968163 217.252098-7.122819 0-10.684229-2.33692-10.684229-7.122819C124.074274 343.12796 150.17362 227.936327 166.812208 85.475868zM408.995192 366.834357c-4.785899 2.392949-8.347308 3.56141-10.684229 3.56141-2.392949-2.33692-2.392949-5.899349 0-10.684229 68.83728-92.598687 124.652392-212.466199 167.391345-359.711538l89.037277 39.176524c7.122819 0 7.122819 4.785899 0 14.245638l-14.245638 14.245638c-11.909737 23.762426-30.885245 54.646652-56.984591 92.598687-7.122819 7.122819-11.909737 13.077178-14.245638 17.807048l213.690688-3.56141 39.176524-46.299344 71.230229 49.860753c4.72987 2.392949 4.72987 5.954359 0 10.684229l-21.369476 32.053705L857.745026 566.279407l-3.56141 103.283935c0 80.745998-43.963442 140.067509-131.775211 178.075574-7.122819 2.33692-10.684229 0-10.684229-7.122819 4.72987-40.401014-4.786918-66.499341-28.492296-78.353049-2.393968-2.33692-3.56141-4.730888-3.56141-7.122819 0-2.33692 2.335902-3.56141 7.122819-3.56141 59.319474 0 86.644328-18.976527 81.914458-56.984591l17.807048-502.171997-71.230229 3.56141 39.176524 14.245638c9.458721 4.785899 10.684229 10.684229 3.56141 17.807048-54.648689 223.205438-170.952754 421.482028-349.028328 594.771703-2.392949 2.33692-4.785899 3.56141-7.122819 3.56141-4.785899-2.392949-5.954359-4.785899-3.56141-7.122819 144.797379-175.682624 239.790034-383.417935 284.920918-623.262979l-128.21482 0C524.131815 236.282616 475.439523 293.267207 408.995192 366.834357zM572.825127 203.005441l60.546001 28.492296c7.122819 2.392949 8.291279 8.347308 3.56141 17.807048-45.131902 123.483932-121.092001 245.743375-227.937345 366.835376-2.392949 2.392949-5.954359 3.56141-10.684229 3.56141-2.392949-2.33692-2.392949-5.89833 0-10.684229C471.878113 502.171997 530.086174 366.834357 572.825127 203.005441z" p-id="57106" fill="#ffffff"></path></svg>