<?xml version="1.0" standalone="no"?><!DOCTYPE svg PUBLIC "-//W3C//DTD SVG 1.1//EN" "http://www.w3.org/Graphics/SVG/1.1/DTD/svg11.dtd"><svg t="1533464277387" class="icon" style="" viewBox="0 0 1024 1024" version="1.1" xmlns="http://www.w3.org/2000/svg" p-id="12686" xmlns:xlink="http://www.w3.org/1999/xlink" width="24" height="24"><defs><style type="text/css"></style></defs><path d="M987.428571 768h-146.285714v-146.285714a36.571429 36.571429 0 0 0-73.142857 0v146.285714h-146.285714a36.571429 36.571429 0 0 0 0 73.142857h146.285714v146.285714a36.571429 36.571429 0 0 0 73.142857 0v-146.285714h146.285714a36.571429 36.571429 0 0 0 0-73.142857zM663.625143 603.574857a36.571429 36.571429 0 0 0 33.865143-64.877714 455.972571 455.972571 0 0 0-43.739429-19.894857c-9.654857-3.803429-19.894857-5.412571-29.769143-8.484572 75.629714-45.202286 126.537143-125.366857 126.537143-217.453714C750.518857 151.552 631.442286 36.571429 485.010286 36.571429 338.651429 36.571429 219.574857 151.552 219.574857 292.864c0 91.355429 50.102857 171.081143 124.781714 216.429714C165.888 566.345143 36.571429 728.429714 36.571429 919.259429a36.571429 36.571429 0 0 0 73.142857 0c0-197.924571 168.374857-358.838857 375.369143-358.838858a388.388571 388.388571 0 0 1 141.897142 26.404572c12.580571 5.046857 24.795429 10.532571 36.644572 16.749714z m-370.834286-310.710857c0-101.010286 86.235429-183.149714 192.292572-183.149714s192.365714 82.139429 192.365714 183.149714-86.308571 183.149714-192.365714 183.149714-192.292571-82.139429-192.292572-183.149714z" fill="#707070" p-id="12687"></path></svg>