<?xml version="1.0" standalone="no"?><!DOCTYPE svg PUBLIC "-//W3C//DTD SVG 1.1//EN" "http://www.w3.org/Graphics/SVG/1.1/DTD/svg11.dtd"><svg t="1533219509856" class="icon" style="" viewBox="0 0 1024 1024" version="1.1" xmlns="http://www.w3.org/2000/svg" p-id="27446" xmlns:xlink="http://www.w3.org/1999/xlink" width="32" height="32"><defs><style type="text/css"></style></defs><path d="M891.345455 472.436364c13.963636-16.290909 20.945455-37.236364 13.963636-58.181819-6.981818-20.945455-23.272727-34.909091-44.218182-39.563636L691.2 349.090909c-23.272727-4.654545-44.218182-18.618182-53.527273-41.890909l-72.145454-155.927273c-9.309091-20.945455-27.927273-34.909091-51.2-34.909091-23.272727 0-41.890909 11.636364-51.2 32.581819l-74.472728 155.927272c-9.309091 20.945455-30.254545 37.236364-53.527272 39.563637l-167.563637 23.272727c-20.945455 2.327273-39.563636 18.618182-46.545454 37.236364-9.309091 23.272727-4.654545 44.218182 11.636363 60.50909l123.345455 130.327273c16.290909 16.290909 23.272727 39.563636 18.618182 62.836364l-30.254546 181.527273c-4.654545 20.945455 4.654545 44.218182 23.272728 55.854545 9.309091 6.981818 20.945455 11.636364 32.581818 11.636364 9.309091 0 18.618182-2.327273 27.927273-6.981819l144.290909-81.454545c20.945455-11.636364 48.872727-11.636364 69.818181 0l144.29091 81.454545c9.309091 4.654545 18.618182 6.981818 27.927272 6.981819 11.636364 0 23.272727-2.327273 32.581818-9.309091 18.618182-11.636364 27.927273-34.909091 23.272728-55.854546L744.727273 663.272727c-4.654545-23.272727 4.654545-46.545455 20.945454-62.836363l125.672728-128z m-353.745455-69.818182l-39.563636 88.436363c-9.309091 18.618182-25.6 30.254545-46.545455 30.254546-6.981818 0-13.963636-2.327273-20.945454-4.654546-25.6-11.636364-37.236364-41.890909-25.6-67.490909l39.563636-88.436363c11.636364-25.6 41.890909-37.236364 67.490909-25.6 25.6 11.636364 37.236364 41.890909 25.6 67.490909z" p-id="27447" fill="#ffffff"></path></svg>