<?xml version="1.0" standalone="no"?><!DOCTYPE svg PUBLIC "-//W3C//DTD SVG 1.1//EN" "http://www.w3.org/Graphics/SVG/1.1/DTD/svg11.dtd"><svg t="1533276172108" class="icon" style="" viewBox="0 0 1024 1024" version="1.1" xmlns="http://www.w3.org/2000/svg" p-id="13569" xmlns:xlink="http://www.w3.org/1999/xlink" width="16" height="16"><defs><style type="text/css"></style></defs><path d="M1005.554464 913.238168l-232.878096-239.691543c-2.323661-2.363045-5.238083-3.308263-7.719281-5.316851a422.670003 422.670003 0 0 0 77.744184-244.653938C842.661887 189.713138 654.051503 0 421.330944 0 188.649768 0 0 189.713138 0 423.575836c0 233.941466 188.649768 423.575836 421.330944 423.575837 96.21532 0 184.593207-32.688791 255.48456-87.275133 1.220907 1.496595 1.772284 3.347647 3.071959 4.765474l232.878096 239.730927a64.629284 64.629284 0 0 0 91.725534 0.984602 65.416966 65.416966 0 0 0 1.063371-92.119375M64.826204 423.575836c0-197.589956 159.978154-358.43456 356.50474-358.434559 196.565969 0 356.504739 160.844604 356.504739 358.434559 0 197.668724-159.93877 358.43456-356.504739 358.43456-196.526585-0.039384-356.504739-160.80522-356.50474-358.43456" fill="#bfbfbf" p-id="13570"></path></svg>