<?xml version="1.0" standalone="no"?><!DOCTYPE svg PUBLIC "-//W3C//DTD SVG 1.1//EN" "http://www.w3.org/Graphics/SVG/1.1/DTD/svg11.dtd"><svg t="1533131306201" class="icon" style="" viewBox="0 0 1024 1024" version="1.1" xmlns="http://www.w3.org/2000/svg" p-id="3013" xmlns:xlink="http://www.w3.org/1999/xlink" width="200" height="200"><defs><style type="text/css"></style></defs><path d="M855.9773116491851 254.5718176426667h-66.576252928c-26.630501413925924 0-66.57625414162963-19.97287636385185-82.1107134008889-37.72654356859259l-44.384169832296294-51.041794882370375c-24.411293468444445-26.630501413925924-55.48021198696296-42.164960673185185-90.98754639644444-42.164960673185185h-119.8372581831111c-39.9457527277037 0-66.57625414162963 13.315251313777777-95.42596350103702 44.384169832296294l-44.384169832296294 51.04179366874074c-13.315251313777777 15.53445925925926-53.26100282785185 35.50733562311111-79.89150424177778 35.50733562311111h-64.35704498251852c-44.384169832296294 0-82.1107134008889 33.288126464-82.1107134008889 75.45308835081481v479.3490278779259c0 39.9457527277037 33.288126464 73.2338791917037 75.45308713718518 75.45308835081481h692.3930416165927c44.384169832296294 0 82.1107134008889-35.50733562311111 82.1107134008889-75.45308835081481V330.0249059934814c0-42.164960673185185-35.50733562311111-75.45308835081481-79.8915054554074-75.45308835081481z m35.50733562311111 557.0213253878518c0 17.75366720474074-15.53445925925926 31.06891851851852-37.72654356859259 31.06891851851852H163.58427124622227c-19.97287636385185 0-33.288126464-15.53445925925926-33.288127677629625-31.06891851851852V330.0249059934814c0-17.75366720474074 15.53445925925926-31.06891851851852 37.72654478222222-31.06891851851852h64.35704498251852c42.164960673185185 0 93.20675555555555-26.630501413925924 113.17963191940738-51.041794882370375l44.38416861866666-51.041794882370375c19.97287636385185-22.19208430933333 35.50733562311111-28.849710573037036 62.13783703703704-28.84970935940741h119.8372581831111c22.19208430933333 0 42.164960673185185 8.876834209185184 57.69941993244444 26.630501413925924l44.38416861866666 51.041794882370375c22.19208430933333 24.411293468444445 73.2338791917037 51.041794882370375 115.3988410785185 51.04179366874074h66.576252928c19.97287636385185 0 37.72654356859259 13.315251313777777 37.72654478222222 31.06891851851852v483.78744619614815z" fill="#353A40" p-id="3014"></path><path d="M512 383.28590882133335c-97.64517266014815 0-177.53667690192594 79.89150424177778-177.53667690192594 177.53667690192594s79.89150424177778 177.53667690192594 177.53667690192594 177.53667811555553 177.53667690192594-79.89150424177778 177.53667690192594-177.53667811555553-79.89150424177778-177.53667690192594-177.53667690192594-177.53667690192594z m0 310.6891851851852c-73.2338791917037 0-133.15250828325927-59.91862909155555-133.15250828325927-133.15250828325927s59.91862909155555-133.15250828325927 133.15250828325927-133.15250706962962 133.15250828325927 59.91862909155555 133.15250828325927 133.15250706962962-59.91862909155555 133.15250828325927-133.15250828325927 133.15250828325927z" fill="#353A40" p-id="3015"></path></svg>