<?xml version="1.0" standalone="no"?><!DOCTYPE svg PUBLIC "-//W3C//DTD SVG 1.1//EN" "http://www.w3.org/Graphics/SVG/1.1/DTD/svg11.dtd"><svg t="1533275262174" class="icon" style="" viewBox="0 0 1075 1024" version="1.1" xmlns="http://www.w3.org/2000/svg" p-id="10540" xmlns:xlink="http://www.w3.org/1999/xlink" width="16.796875" height="16"><defs><style type="text/css"></style></defs><path d="M884.680192 262.9632c89.1392 56.832 142.3872 151.5008 142.3872 253.184 0 52.1728-11.264 94.2592-40.2944 147.456-23.7568 43.5712-61.5424 75.1104-61.5424 75.1104l-58.5216-58.112s33.9456-34.9184 46.08-55.3984c19.456-32.9728 30.1056-70.5024 30.1056-109.056 0-74.5472-39.168-144.0256-104.8064-185.856a39.424 39.424 0 0 1-11.776-56.064 43.1616 43.1616 0 0 1 58.368-11.264zM385.121792 200.0896L610.913792 12.8512s24.3712-22.3232 59.1872-8.0896c34.816 14.2336 34.304 48.4352 34.304 48.4352l-0.8192 463.2576-84.3264-83.8656 0.9216-320.512-176.0256 146.1248L385.121792 200.0896z m511.5392 740.3008L98.504192 142.336s-30.3104-30.5152-1.6384-58.7776c28.672-28.2112 59.136 2.2528 59.136 2.2528l797.5424 797.3376s29.3888 28.7744 1.024 57.2416c-28.416 28.416-57.856 0-57.856 0z m-277.4016-188.0576l84.3264 84.992-0.6656 123.392s0 29.184-31.5904 45.3632c-31.5392 16.1792-60.6208-6.144-60.6208-6.144l-305.664-230.9632-221.8496 0.1536s-32.512 1.5872-59.2896-24.8832c-26.7776-26.4704-23.7568-55.7568-23.7568-55.7568V337.5104s-1.7408-29.696 25.2928-56.5248c27.0848-26.88 64.6144-24.576 64.6144-24.576h35.6864l79.5136 81.1008h-119.296l-1.792 350.6688 223.4368-0.512s14.2336 0.8192 27.136 5.4272c12.9536 4.5568 24.32 12.8 24.32 12.8l259.4304 196.9664 0.768-150.528z" fill="#dbdbdb" p-id="10541"></path></svg>